<?xml version="1.0" encoding="UTF-8"?>
<svg version="1.1" xmlns="http://www.w3.org/2000/svg" width="512" height="512">
<path d="M0 0 C1.31537364 2.43598808 2.62739143 4.8736825 3.9375 7.3125 C4.31068359 8.00279297 4.68386719 8.69308594 5.06835938 9.40429688 C5.42607422 10.07138672 5.78378906 10.73847656 6.15234375 11.42578125 C6.6472229 12.34484253 6.6472229 12.34484253 7.15209961 13.2824707 C8 15 8 15 9 18 C11.58345563 17.85613458 14.16674691 17.70992586 16.75 17.5625 C17.46027344 17.52318359 18.17054688 17.48386719 18.90234375 17.44335938 C23.18003601 17.19729743 27.44009354 16.87220388 31.70703125 16.48046875 C53.6197569 14.6327211 75.2583828 16.26105157 97 19 C97.29438965 18.0807373 97.5887793 17.16147461 97.89208984 16.21435547 C99.13500119 12.60832399 100.78521676 9.46386588 102.625 6.125 C103.25664062 4.97257812 103.88828125 3.82015625 104.5390625 2.6328125 C105.02117187 1.76398438 105.50328125 0.89515625 106 0 C115.47017639 -0.60128104 123.93667123 1.59793986 133 4 C134.18964355 4.30550781 134.18964355 4.30550781 135.40332031 4.6171875 C149.78489322 8.33448277 163.58982994 13.34581475 177.34423828 18.94165039 C178.91996364 19.5695939 180.50918208 20.16736298 182.12060547 20.69702148 C187.52580608 22.56737621 189.57916355 25.99258512 192.375 30.6875 C192.84341309 31.44353516 193.31182617 32.19957031 193.79443359 32.97851562 C195.22228838 35.30452932 196.61720712 37.64695743 198 40 C198.40541016 40.68916504 198.81082031 41.37833008 199.22851562 42.08837891 C201.52466513 46.0275295 203.74149786 50.00525818 205.91601562 54.01269531 C206.98550532 55.97342642 208.07714779 57.92045984 209.171875 59.8671875 C223.46465053 85.62853192 233.06136055 113.5965964 239.375 142.3125 C239.6016333 143.33456543 239.8282666 144.35663086 240.06176758 145.40966797 C244.20640835 165.46418023 245.47308528 185.38616342 245.33618164 205.83398438 C245.31213269 209.68379965 245.31570831 213.53293888 245.32226562 217.3828125 C245.31670091 219.85156662 245.30959871 222.32031786 245.30078125 224.7890625 C245.30169266 225.9296109 245.30260406 227.0701593 245.30354309 228.24526978 C245.19107653 240.79054967 245.19107653 240.79054967 241.13671875 244.87890625 C238.11349116 246.95707386 235.08404702 249.01348136 232 251 C231.26249512 251.47888672 230.52499023 251.95777344 229.76513672 252.45117188 C209.42767966 265.56999862 188.49511445 276.10648987 166 285 C165.1637207 285.33467285 164.32744141 285.6693457 163.46582031 286.01416016 C148.56025713 291.95853077 148.56025713 291.95853077 145 291 C142.68430502 288.53499771 140.96649171 285.7409936 139.1875 282.875 C138.66704102 282.06345459 138.14658203 281.25190918 137.61035156 280.41577148 C136.0482043 277.95859382 134.51778423 275.48478801 133 273 C132.56059082 272.28118652 132.12118164 271.56237305 131.66845703 270.82177734 C125 259.7961351 125 259.7961351 125 256 C125.51272461 255.79431396 126.02544922 255.58862793 126.55371094 255.37670898 C136.82900697 251.22724718 146.63495251 246.98166706 156 241 C154.088372 238.61655833 154.088372 238.61655833 151 237 C147.79102019 237.43321625 144.96588949 238.74028795 142 240 C140.32795643 240.62890965 138.65339783 241.25116776 136.9765625 241.8671875 C136.11119873 242.19299805 135.24583496 242.51880859 134.35424805 242.85449219 C80.08134463 263.14796533 23.06207685 262.21280314 -30.9765625 241.8671875 C-32.65096487 241.2445851 -34.32544253 240.62218514 -36 240 C-36.83813232 239.67894287 -37.67626465 239.35788574 -38.53979492 239.02709961 C-39.33748291 238.73585205 -40.1351709 238.44460449 -40.95703125 238.14453125 C-42.01627808 237.74778198 -42.01627808 237.74778198 -43.09692383 237.34301758 C-45.30634857 236.73064173 -45.30634857 236.73064173 -48.0625 238.8125 C-48.701875 239.534375 -49.34125 240.25625 -50 241 C-39.97777765 246.71975316 -29.81128118 251.93381018 -19 256 C-19.9180804 260.18300027 -21.83486867 263.61790809 -23.9375 267.3125 C-24.32993896 268.00730469 -24.72237793 268.70210938 -25.12670898 269.41796875 C-29.38912844 276.8539235 -34.14320698 283.94294793 -39 291 C-44.57835644 290.41125526 -49.39181081 288.9866533 -54.625 287 C-55.44548828 286.69167236 -56.26597656 286.38334473 -57.11132812 286.06567383 C-80.30952482 277.23484102 -102.13968551 266.47178472 -123 253 C-123.69657715 252.55060059 -124.3931543 252.10120117 -125.11083984 251.63818359 C-127.09023692 250.34379979 -129.04829385 249.02318693 -131 247.6875 C-131.58177002 247.30335938 -132.16354004 246.91921875 -132.76293945 246.5234375 C-136.74508968 243.71548786 -137.89121142 241.6882026 -139 237 C-139.2989894 232.9292427 -139.30404189 228.86946974 -139.30078125 224.7890625 C-139.30506638 223.58929779 -139.3093515 222.38953308 -139.31376648 221.15341187 C-139.31950734 218.60651274 -139.32001185 216.05959722 -139.31567383 213.51269531 C-139.31256194 209.70086761 -139.33580758 205.88985402 -139.36132812 202.078125 C-139.41529225 181.69836643 -137.71310504 161.84426793 -133.25 141.9375 C-132.99178467 140.77033447 -132.73356934 139.60316895 -132.4675293 138.40063477 C-127.69990385 117.41537235 -120.54781867 97.7317633 -112 78 C-111.43176514 76.68539795 -111.43176514 76.68539795 -110.85205078 75.34423828 C-105.15240446 62.34069735 -98.21638132 49.99670706 -90.77758789 37.91113281 C-89.55293433 35.90553344 -88.37470426 33.87109236 -87.23608398 31.81542969 C-82.27519448 23.39844303 -77.29854178 20.30599373 -68.1875 17.125 C-66.98625488 16.67358643 -65.78500977 16.22217285 -64.54736328 15.75708008 C-61.04605616 14.45854023 -57.52948887 13.21952403 -54 12 C-53.10716309 11.68305176 -52.21432617 11.36610352 -51.29443359 11.03955078 C-41.67221194 7.65001539 -31.83098987 5.09293648 -21.9375 2.625 C-20.90222168 2.36162842 -19.86694336 2.09825684 -18.80029297 1.8269043 C-12.42161649 0.29637225 -6.55545336 -0.34221259 0 0 Z M-36 133 C-38.0643785 135.85521007 -39.57675428 138.78368881 -41 142 C-41.30679688 142.63679688 -41.61359375 143.27359375 -41.9296875 143.9296875 C-45.76255043 152.72702051 -45.98747947 162.94119129 -43 172 C-38.86568815 182.43744302 -33.23342104 190.52881634 -22.859375 195.30859375 C-15.40787662 198.07942403 -6.40889951 198.43593856 0.9375 195.25 C2.30728881 194.5289272 3.66357205 193.78117072 5 193 C6.03125 192.443125 7.0625 191.88625 8.125 191.3125 C16.44656611 184.61906639 21.28032372 175.47877508 23 165 C23.96268945 154.26837992 22.22236998 143.88980551 15.75 135.0625 C9.49842382 127.79787523 2.3744699 122.61104386 -7.30078125 121.68359375 C-19.1033293 121.29059806 -27.56256445 124.66105591 -36 133 Z M89.84375 135.34375 C83.20325341 144.91056711 81.59288421 156.43805816 83.4609375 167.8046875 C85.82449268 177.62039313 90.4715819 186.30844064 99 192 C107.42740864 196.83565329 115.71031988 198.59902661 125.421875 196.46875 C135.05656274 193.03312491 142.93776173 185.84717058 147.375 176.625 C151.96281219 164.88020081 151.94503169 153.34486458 147.28515625 141.63671875 C142.96652339 132.7763018 136.32986721 126.52321603 127.16796875 122.87109375 C112.17758259 118.74919965 99.54498653 123.67414664 89.84375 135.34375 Z " fill="#5E4E3E" transform="translate(203,111)"/>
</svg>
