<?xml version="1.0" encoding="UTF-8"?>
<svg version="1.1" xmlns="http://www.w3.org/2000/svg" width="512" height="512">
<path d="M0 0 C2.95090988 0.00849637 5.89986608 -0.02035556 8.85058594 -0.05200195 C50.77272838 -0.2071132 90.88287666 17.11927446 121.29980469 45.70385742 C123.3032645 47.61054289 123.3032645 47.61054289 126.21777344 49.44604492 C126.21777344 50.10604492 126.21777344 50.76604492 126.21777344 51.44604492 C127.20777344 51.77604492 128.19777344 52.10604492 129.21777344 52.44604492 C148.86686369 70.45314992 163.01617485 98.70101644 170.65527344 123.75854492 C170.87787842 124.48452881 171.1004834 125.2105127 171.32983398 125.95849609 C175.5218232 140.67484793 176.73027214 155.04020966 176.66381836 170.28320312 C176.65531207 173.24509432 176.68419024 176.2050457 176.71582031 179.16674805 C176.77999376 196.2388343 174.15902687 212.27899077 168.59277344 228.44604492 C168.08399658 229.94059204 168.08399658 229.94059204 167.56494141 231.46533203 C157.98158986 258.67296464 141.25310707 282.7724535 120.21777344 302.44604492 C119.55777344 302.44604492 118.89777344 302.44604492 118.21777344 302.44604492 C118.21777344 303.10604492 118.21777344 303.76604492 118.21777344 304.44604492 C103.17671556 319.32960481 76.02508351 336.25918228 54.65527344 338.88354492 C50.26889788 338.32527894 48.95209195 336.8237325 46.21777344 333.44604492 C44.88880933 330.78811671 45.07848908 328.75461394 45.06005859 325.77807617 C45.04979645 324.58923828 45.0395343 323.40040039 45.02896118 322.17553711 C45.02165985 320.88292969 45.01435852 319.59032227 45.00683594 318.25854492 C44.99386667 316.91771627 44.98004997 315.57689558 44.96542358 314.23608398 C44.90392514 308.54165918 44.8500141 302.84725084 44.81640625 297.15258789 C44.79529092 293.66820592 44.75984451 290.18420492 44.71564865 286.70004272 C44.69483339 284.74281992 44.6894669 282.78545213 44.68447876 280.828125 C44.55929375 271.65408071 43.70534602 263.08128732 38.09277344 255.50854492 C36.28597681 253.03206496 35.19852919 251.38831219 34.21777344 248.44604492 C34.90178223 248.32076416 35.58579102 248.1954834 36.29052734 248.06640625 C63.52221082 243.11699895 63.52221082 243.11699895 87.21777344 229.44604492 C87.87777344 229.44604492 88.53777344 229.44604492 89.21777344 229.44604492 C89.21777344 228.78604492 89.21777344 228.12604492 89.21777344 227.44604492 C91.09277344 225.32104492 91.09277344 225.32104492 93.21777344 223.44604492 C93.87777344 223.44604492 94.53777344 223.44604492 95.21777344 223.44604492 C95.46914063 222.91366211 95.72050781 222.3812793 95.97949219 221.83276367 C97.21777344 219.44604492 97.21777344 219.44604492 98.98730469 216.59057617 C111.51426784 196.15941065 115.32292842 170.91012857 110.25683594 147.48120117 C107.98990335 138.09123289 104.11969648 129.63913794 97.63574219 122.41088867 C95.86296913 119.95440149 95.44221618 118.47602193 95.21777344 115.44604492 C95.67300916 112.80793975 96.19416431 110.24085331 96.78027344 107.63354492 C99.14917144 95.85944355 97.11138515 85.02049178 94.21777344 73.44604492 C80.49809427 75.38174223 67.57063389 78.25745259 55.7824707 85.82666016 C50.62636007 89.12062243 46.91711565 91.04864836 40.59277344 90.07104492 C38.45965259 89.56229818 36.33399621 89.02104838 34.21777344 88.44604492 C32.22232661 88.06706471 30.22210091 87.7123388 28.21777344 87.38354492 C27.239375 87.21983398 26.26097656 87.05612305 25.25292969 86.88745117 C5.31853525 83.98836936 -15.18569255 85.30880542 -34.75097656 89.95776367 C-40.70548158 90.91693007 -43.97549124 88.8911298 -48.96972656 85.75854492 C-60.4629763 78.89886997 -73.31232809 74.49886805 -86.78222656 74.44604492 C-87.26434871 76.00763552 -87.74278529 77.5703642 -88.21972656 79.13354492 C-88.4865625 80.00366211 -88.75339844 80.8737793 -89.02832031 81.77026367 C-91.83756079 91.74088402 -91.45317852 101.97765729 -89.21972656 112.04370117 C-88.06853875 118.36495569 -88.06853875 118.36495569 -90.10253906 121.44604492 C-90.69808594 122.10604492 -91.29363281 122.76604492 -91.90722656 123.44604492 C-102.04959375 135.80577173 -105.34008464 150.57337329 -105.15722656 166.19604492 C-105.14852539 167.43088623 -105.13982422 168.66572754 -105.13085938 169.93798828 C-104.98888698 178.77344231 -104.3263687 186.9400933 -101.78222656 195.44604492 C-101.34716797 196.9059082 -101.34716797 196.9059082 -100.90332031 198.39526367 C-95.15946906 215.62681744 -85.17427016 228.53536439 -69.29394531 237.39135742 C-56.07635373 243.96956907 -41.23515045 246.12765781 -26.78222656 248.44604492 C-29.57484401 253.14940063 -29.57484401 253.14940063 -30.98925781 255.17260742 C-34.25575041 259.96872646 -35.82293814 264.47200142 -37.10644531 270.12573242 C-37.78222656 272.44604492 -37.78222656 272.44604492 -39.78222656 274.44604492 C-49.88567568 277.68472723 -63.43432673 280.89750563 -73.63378906 276.70776367 C-81.1277701 272.30675299 -86.27251922 266.07599119 -91.00878906 258.93823242 C-96.84876494 250.73139407 -103.61623591 244.78200956 -113.53222656 242.63354492 C-116.315663 242.47296205 -118.18817343 242.51218579 -120.78222656 243.44604492 C-120.38885242 247.88703191 -117.3362275 249.92915001 -114.15722656 252.63354492 C-107.30404945 258.70726171 -102.06888392 264.81931187 -97.84472656 273.00854492 C-91.88103379 284.23155731 -81.67152721 291.43414348 -69.65722656 295.38354492 C-59.70607534 297.74803129 -48.80159164 296.95514941 -38.78222656 295.44604492 C-38.65822046 300.6054618 -38.5676979 305.76400314 -38.50756836 310.92456055 C-38.4824919 312.67829508 -38.44842161 314.43192578 -38.4050293 316.18530273 C-38.34407052 318.71258198 -38.31594937 321.23847473 -38.29394531 323.76635742 C-38.26813889 324.54471954 -38.24233246 325.32308167 -38.21574402 326.12503052 C-38.21369625 330.13926508 -38.57092473 332.7158761 -41.07055664 335.94165039 C-43.78222656 338.44604492 -43.78222656 338.44604492 -47.65722656 339.19604492 C-77.69486471 336.92346046 -111.09189644 307.64394651 -129.90722656 285.94604492 C-131.78222656 283.44604492 -131.78222656 283.44604492 -131.78222656 281.44604492 C-132.44222656 281.44604492 -133.10222656 281.44604492 -133.78222656 281.44604492 C-135.42173368 279.27019347 -136.92704872 277.10260356 -138.40722656 274.82104492 C-139.07492065 273.80204102 -139.07492065 273.80204102 -139.75610352 272.76245117 C-156.73394772 246.5932057 -169.80814811 216.57314313 -169.98535156 184.86401367 C-169.99105164 184.05096268 -169.99675171 183.23791168 -170.00262451 182.40022278 C-170.01203097 180.68154175 -170.01859108 178.96284304 -170.02246094 177.24414062 C-170.03205676 174.6789365 -170.063075 172.11457343 -170.09472656 169.54956055 C-170.3807481 124.80511719 -151.4638949 82.67706731 -120.28466797 50.97924805 C-119.0301994 49.69909487 -117.79960804 48.39559964 -116.57519531 47.08666992 C-98.34126918 27.89306347 -72.28169663 14.49574269 -47.40722656 6.44604492 C-46.5897998 6.17961182 -45.77237305 5.91317871 -44.93017578 5.63867188 C-30.0504701 1.11508925 -15.47474946 -0.06760318 0 0 Z " fill="#5E4E3E" transform="translate(249.7822265625,84.553955078125)"/>
</svg>
