<?xml version="1.0" encoding="UTF-8"?>
<svg version="1.1" xmlns="http://www.w3.org/2000/svg" width="512" height="512">
<path d="M0 0 C1.19461084 -0.00507454 2.38922168 -0.01014909 3.62003285 -0.0153774 C5.59858616 -0.01612404 5.59858616 -0.01612404 7.61711025 -0.01688576 C9.02738025 -0.02090022 10.43764909 -0.02533842 11.84791654 -0.03016531 C15.73257135 -0.0421387 19.61721374 -0.04778105 23.50188339 -0.05234647 C27.6881634 -0.05829974 31.87442853 -0.06991035 36.06069851 -0.08063698 C46.17600445 -0.10516847 56.29131533 -0.11978984 66.40664187 -0.13269705 C69.26354045 -0.13640863 72.12043855 -0.14038189 74.97733665 -0.14444971 C92.71663412 -0.16968741 110.45593236 -0.19174151 128.19524384 -0.20417786 C132.30497713 -0.20710758 136.41471039 -0.21006924 140.52444363 -0.21308327 C141.54590488 -0.21382932 142.56736614 -0.21457537 143.61978077 -0.21534403 C160.16396145 -0.22799552 176.70803461 -0.26121522 193.25216503 -0.3028851 C210.23639539 -0.34531284 227.22057073 -0.36887392 244.20485395 -0.37409842 C253.74138442 -0.37751173 263.2777469 -0.38925741 272.8142252 -0.42220116 C280.93680133 -0.45021444 289.05917504 -0.46119542 297.18179572 -0.4500057 C301.32488738 -0.44482217 305.46755524 -0.44768554 309.61058521 -0.47247124 C313.40767792 -0.4949973 317.20404325 -0.49419852 321.00114899 -0.47526737 C323.01674327 -0.47115331 325.03234218 -0.49158833 327.04782635 -0.51305425 C335.84317802 -0.43638955 342.84968629 1.00058282 349.44381291 7.12682688 C357.31474466 15.38991561 357.74033933 22.92185974 357.68971157 33.94656944 C357.69388705 35.36172011 357.69936574 36.77686743 357.70603138 38.19200855 C357.72047672 42.07155499 357.71624417 45.95088881 357.70886457 49.83044684 C357.70413295 54.0179936 357.71664267 58.20549435 357.72688198 62.39302635 C357.74407525 70.59306237 357.74490892 78.79302177 357.73966908 86.99307113 C357.73562725 93.65808041 357.73707109 100.32306706 357.74241734 106.98807526 C357.74316576 107.93676595 357.74391418 108.88545664 357.74468528 109.86289554 C357.74621676 111.79016995 357.74775511 113.71744437 357.74930025 115.64471877 C357.76302712 133.71686725 357.75758621 151.78897244 357.74611504 169.86111993 C357.73618172 186.39345485 357.74912469 202.92567787 357.77304923 219.45799553 C357.79743293 236.43557373 357.80704994 253.41309979 357.8003965 270.39069515 C357.79690276 279.92147295 357.79914665 289.45216467 357.81664753 298.98292923 C357.83136035 307.0959474 357.83201696 315.20881888 357.81457662 323.32183414 C357.80605678 327.46058536 357.80394096 331.59907441 357.81922817 335.73781204 C357.83305606 339.52840613 357.82833698 343.318513 357.80898894 347.10907877 C357.80344198 349.12593332 357.81751626 351.14281255 357.83234304 353.15962023 C357.76438951 361.51277082 356.84601307 367.06010328 351.22390652 373.52763939 C344.09205608 379.6333243 337.27057394 384.25454505 327.59847641 384.27123547 C326.40263217 384.27569331 325.20678794 384.28015115 323.97470599 384.28474408 C322.64096883 384.28465478 321.30723167 384.28446493 319.97349453 384.28418541 C318.56179935 384.28748414 317.15010511 384.29120972 315.73841208 384.29532689 C311.84989379 384.30535402 307.96139094 384.30906483 304.07286155 384.3117162 C299.88253139 384.31561714 295.69221348 384.32519562 291.50189114 384.33392906 C281.37769366 384.35369939 271.25349518 384.36376038 261.12928322 384.37265685 C256.36301469 384.3770388 251.59674727 384.38240585 246.83047962 384.38764572 C230.98872038 384.40465853 215.14696183 384.41915309 199.30519485 384.42639446 C195.19338194 384.42830439 191.08156902 384.43022472 186.96975613 384.4321804 C185.94777025 384.43266414 184.92578437 384.43314789 183.87282922 384.43364628 C167.31438237 384.44194799 150.75600773 384.46728706 134.19759241 384.49976108 C117.20207085 384.53282094 100.20658599 384.55084225 83.21103209 384.5540387 C73.66676843 384.55620479 64.12261007 384.56496788 54.57837772 384.59049988 C46.45063826 384.6121922 38.32302968 384.62026453 30.19526456 384.6105331 C26.04842964 384.60598413 21.90186485 384.60790911 17.75506687 384.62729454 C13.956929 384.64489668 10.15925889 384.64395279 6.36111625 384.62839725 C4.34008114 384.62489099 2.31904129 384.64106947 0.29807407 384.65800172 C-7.77200568 384.60071868 -13.34869255 383.80271061 -19.68624973 378.46123314 C-20.12324192 377.92111595 -20.56023411 377.38099876 -21.01046848 376.82451439 C-21.4603513 376.29213158 -21.91023411 375.75974876 -22.37374973 375.21123314 C-27.21071499 367.63474774 -27.12808786 361.06579389 -27.09237766 352.22029686 C-27.09726965 350.7934839 -27.10346088 349.36667491 -27.11083555 347.93987262 C-27.12721923 344.02805927 -27.12492039 340.11644766 -27.11946058 336.20461202 C-27.11678845 331.98227615 -27.1313256 327.75999383 -27.14355564 323.53767967 C-27.16460388 315.26913385 -27.16915085 307.00065815 -27.16736776 298.7320887 C-27.16605986 292.01083248 -27.16986569 285.28959813 -27.17729282 278.56834602 C-27.17939203 276.63190584 -27.18148963 274.69546565 -27.18358564 272.75902545 C-27.18462917 271.7951897 -27.1856727 270.83135395 -27.18674785 269.83831106 C-27.20564768 251.61209909 -27.20460077 233.38592738 -27.19777852 215.15970968 C-27.19220288 198.48899986 -27.21302986 181.81844372 -27.24613899 165.14776982 C-27.27987855 148.02667363 -27.29504402 130.90565104 -27.29042196 113.78452098 C-27.28817759 104.17376296 -27.29341579 94.56314698 -27.31831455 84.95241737 C-27.33933106 76.7706035 -27.34291617 68.58900956 -27.32401496 60.40718664 C-27.31485936 56.23382657 -27.31370844 52.06087653 -27.33437061 47.88754845 C-27.35309086 44.06412512 -27.34856616 40.24144734 -27.3258248 36.4180523 C-27.31966583 34.38602008 -27.33802271 32.35395874 -27.35736132 30.32200921 C-27.26780516 21.0756686 -25.30607604 15.42773689 -19.38546848 8.38701439 C-13.32787772 3.31554305 -8.0330978 0.0180823 0 0 Z M30.30203152 59.13701439 C23.26474039 69.26799388 21.30189483 77.80199528 22.30203152 90.13701439 C24.14148011 98.72886922 29.44523486 105.66181957 36.54031277 110.73857689 C44.87585535 115.66216163 53.73925253 117.66283883 63.25906277 115.44951439 C72.97785001 112.51554088 79.674054 108.27552699 85.04812527 99.56279564 C89.59259147 90.77116476 90.48800546 82.09455922 88.11843777 72.50029564 C84.84441231 63.02285352 78.86751194 56.36141915 70.05203152 51.82451439 C57.00675379 45.64105275 40.2285196 48.50149144 30.30203152 59.13701439 Z M204.30203152 149.13701439 C203.23082058 149.49924095 202.15960964 149.86146751 201.05593777 150.23467064 C190.42919156 154.22816125 181.9949128 160.91561455 174.30203152 169.13701439 C172.98203152 170.45701439 171.66203152 171.77701439 170.30203152 173.13701439 C170.63203152 164.55701439 170.96203152 155.97701439 171.30203152 147.13701439 C154.47203152 147.13701439 137.64203152 147.13701439 120.30203152 147.13701439 C120.30203152 207.19701439 120.30203152 267.25701439 120.30203152 329.13701439 C137.79203152 329.13701439 155.28203152 329.13701439 173.30203152 329.13701439 C173.35101589 322.82576439 173.40000027 316.51451439 173.45046902 310.01201439 C173.4859073 305.98335375 173.52189686 301.95471278 173.55984402 297.92607689 C173.61985583 291.54947989 173.67796618 285.17291001 173.72390652 278.79619408 C173.76112602 273.6478435 173.80757852 268.49964734 173.86009502 263.35143089 C173.87844633 261.39975796 173.89362304 259.44805218 173.90537548 257.49632835 C174.16291934 216.1562122 174.16291934 216.1562122 186.30203152 203.13701439 C194.23032973 195.55342479 203.37004132 192.215748 214.23953152 191.82451439 C223.76133971 192.11885158 230.20943622 194.89097277 237.10281277 201.53545189 C246.18780791 212.28253317 247.42075446 226.63702428 247.50735378 240.13310814 C247.51725338 241.09987984 247.52715298 242.06665154 247.53735256 243.06271935 C247.5687422 246.23329345 247.59363518 249.4038825 247.61843777 252.57451439 C247.63902679 254.78268875 247.66002376 256.99085934 247.68141079 259.19902611 C247.73643029 264.99230955 247.7859278 270.78562736 247.83425808 276.57896996 C247.89348557 283.53999122 247.95960216 290.50095007 248.02455807 297.46191978 C248.12231417 308.02024633 248.2113435 318.57861412 248.30203152 329.13701439 C266.12203152 329.13701439 283.94203152 329.13701439 302.30203152 329.13701439 C302.36041255 311.48955968 302.36041255 311.48955968 302.39968777 293.84209251 C302.41154294 286.62144005 302.42540946 279.40083933 302.45291042 272.18022728 C306.07185835 212.46848558 306.07185835 212.46848558 282.61843777 160.25420189 C266.22815909 145.27354245 244.48389114 144.04043536 223.31716824 144.92119408 C216.65011849 145.39841448 210.60956108 146.92829279 204.30203152 149.13701439 Z M28.30203152 147.13701439 C28.30203152 207.19701439 28.30203152 267.25701439 28.30203152 329.13701439 C46.12203152 329.13701439 63.94203152 329.13701439 82.30203152 329.13701439 C82.30203152 269.07701439 82.30203152 209.01701439 82.30203152 147.13701439 C64.48203152 147.13701439 46.66203152 147.13701439 28.30203152 147.13701439 Z " fill="#5E4E3E" transform="translate(90.69796848297119,63.862985610961914)"/>
<path d="" fill="#5E4E3E" transform="translate(0,0)"/>
</svg>
